<svg width="691" height="679" viewBox="0 0 691 679" fill="none" xmlns="http://www.w3.org/2000/svg">
<path d="M222.682 480.826C392.332 275.448 507.517 156.863 705.753 10.3133C715.419 3.16736 726.641 15.8751 718.521 24.7382C505.427 257.313 386.652 412.208 198.97 667.17C195.016 672.541 186.936 672.681 182.904 667.369C120.693 585.414 81.88 527.444 8.96679 380.01C7.18595 376.409 7.69789 372.014 10.3653 369.01C24.5758 353.007 35.3347 343.688 59 332C94.4035 315.952 115.096 316.862 148.736 321.18C152.56 321.671 155.756 324.336 156.944 328.004L205.371 477.612C207.805 485.131 217.649 486.919 222.682 480.826Z" fill="white" stroke="white" stroke-width="15"/>
</svg>
