<svg width="256" height="256" viewBox="0 0 256 256" fill="none" xmlns="http://www.w3.org/2000/svg">
<circle cx="128" cy="128" r="80" stroke="white" stroke-width="40"/>
<circle cx="228" cy="128" r="20" fill="white"/>
<circle cx="28" cy="128" r="20" fill="white"/>
<circle cx="128" cy="28" r="20" fill="white"/>
<circle cx="178" cy="44" r="20" fill="white"/>
<circle cx="214" cy="177" r="20" fill="white"/>
<circle cx="178" cy="214" r="20" fill="white"/>
<circle cx="74" cy="214" r="20" fill="white"/>
<circle cx="38" cy="177" r="20" fill="white"/>
<circle cx="42" cy="79" r="20" fill="white"/>
<circle cx="78" cy="44" r="20" fill="white"/>
<circle cx="214" cy="79" r="20" fill="white"/>
<path d="M148 226C148 237.046 139.046 246 128 246C116.954 246 108 237.046 108 226C108 214.954 116.954 206 128 206C139.046 206 148 214.954 148 226Z" fill="white"/>
</svg>
